<?xml version="1.0" standalone="no"?><!DOCTYPE svg PUBLIC "-//W3C//DTD SVG 1.1//EN" "http://www.w3.org/Graphics/SVG/1.1/DTD/svg11.dtd"><svg t="1611584066531" class="icon" viewBox="0 0 1024 1024" version="1.1" xmlns="http://www.w3.org/2000/svg" p-id="8520" xmlns:xlink="http://www.w3.org/1999/xlink" width="128" height="128"><defs><style type="text/css"></style></defs><path d="M378.67008 837.66784L309.51936 957.44h402.90304l-68.80768-119.17824A403.93216 403.93216 0 0 1 512 860.16a403.87584 403.87584 0 0 1-133.32992-22.49216z m-14.60736-5.41696C213.84704 773.19168 107.52 626.85184 107.52 455.68c0-223.3856 181.0944-404.48 404.48-404.48s404.48 181.0944 404.48 404.48c0 171.81184-107.12064 318.60224-258.22208 377.22624l71.84384 124.43648-0.16896 0.09728H803.84v15.36H220.16v-15.36h71.84896l-0.16896-0.1024 72.22272-125.08672zM512 844.8c214.90688 0 389.12-174.21312 389.12-389.12s-174.21312-389.12-389.12-389.12-389.12 174.21312-389.12 389.12 174.21312 389.12 389.12 389.12z m2.56-51.2c125.83424 0 227.84-102.00576 227.84-227.84S640.39424 337.92 514.56 337.92 286.72 439.92576 286.72 565.76 388.72576 793.6 514.56 793.6z m0 15.36C380.24192 808.96 271.36 700.07808 271.36 565.76S380.24192 322.56 514.56 322.56 757.76 431.44192 757.76 565.76 648.87808 808.96 514.56 808.96z" fill="#2c2c2c" p-id="8521"></path><path d="M517.12 250.88a40.96 40.96 0 1 0 0-81.92 40.96 40.96 0 0 0 0 81.92z m0 15.36c-31.104 0-56.32-25.216-56.32-56.32s25.216-56.32 56.32-56.32 56.32 25.216 56.32 56.32-25.216 56.32-56.32 56.32z" fill="#2c2c2c" p-id="8522"></path><path d="M519.68 570.88m-171.52 0a171.52 171.52 0 1 0 343.04 0 171.52 171.52 0 1 0-343.04 0Z" fill="#2c2c2c" opacity=".1" p-id="8523"></path></svg>