<?xml version="1.0" standalone="no"?><!DOCTYPE svg PUBLIC "-//W3C//DTD SVG 1.1//EN" "http://www.w3.org/Graphics/SVG/1.1/DTD/svg11.dtd"><svg t="1611488406081" class="icon" viewBox="0 0 1024 1024" version="1.1" xmlns="http://www.w3.org/2000/svg" p-id="8116" xmlns:xlink="http://www.w3.org/1999/xlink" width="128" height="128"><defs><style type="text/css"></style></defs><path d="M0 0h1024v1024H0z" fill="#1296db" fill-opacity="0" p-id="8117"></path><path d="M465.728 512h1.728c24.576 0 44.544 19.968 44.544 44.544v326.912a44.544 44.544 0 1 1-89.152 0v-215.04L177.28 914.112a47.616 47.616 0 0 1-67.328-67.328l238.72-238.72H144a48 48 0 0 1 0-96h321.728z m202.752-89.152h214.976a44.544 44.544 0 1 1 0 89.152H556.544A44.416 44.416 0 0 1 512 467.456V140.544a44.544 44.544 0 1 1 89.152 0v215.04l245.568-245.632a47.616 47.616 0 1 1 67.328 67.328l-245.568 245.568z" fill="#1296db" p-id="8118"></path></svg>