<?xml version="1.0" standalone="no"?><!DOCTYPE svg PUBLIC "-//W3C//DTD SVG 1.1//EN" "http://www.w3.org/Graphics/SVG/1.1/DTD/svg11.dtd"><svg t="1611488421313" class="icon" viewBox="0 0 1024 1024" version="1.1" xmlns="http://www.w3.org/2000/svg" p-id="9085" xmlns:xlink="http://www.w3.org/1999/xlink" width="128" height="128"><defs><style type="text/css"></style></defs><path d="M977.50883 495.365545a45.638121 45.638121 0 0 1-45.63812-45.638121V91.702766H573.846051a45.638121 45.638121 0 1 1 0-91.276242h403.662779c25.59147 0 45.638121 20.814395 45.638121 45.638121v402.80973c0 25.59147-20.814395 46.49117-45.638121 46.49117z" fill="#1296db" p-id="9086"></path><path d="M637.312896 426.865711a42.055315 42.055315 0 0 1-28.662446-11.942685 40.519827 40.519827 0 0 1 0-56.557148L955.500167 11.516161c15.354882-15.354882 41.202266-15.354882 56.642452 0 15.354882 15.354882 15.354882 41.287571 0 56.642453L665.975342 415.008331a40.775741 40.775741 0 0 1-28.662446 11.942685zM449.727424 1023.146951H46.064645a45.638121 45.638121 0 0 1-45.638121-45.638121V573.078307a45.638121 45.638121 0 1 1 91.276242 0v357.939354h358.024658c25.59147 0 45.638121 20.8997 45.638121 45.723425 0 25.59147-20.814395 46.405865-45.638121 46.405865z" fill="#1296db" p-id="9087"></path><path d="M40.178607 1024a42.055315 42.055315 0 0 1-28.662446-11.942686 40.519827 40.519827 0 0 1 0-56.557147l346.849717-346.849717c15.354882-15.354882 41.202266-15.354882 56.642453 0 15.354882 15.354882 15.354882 41.287571 0 56.642452L68.158614 1012.142619a40.434522 40.434522 0 0 1-27.980007 11.942686z" fill="#1296db" p-id="9088"></path></svg>